<?xml version="1.0" standalone="no"?>
<!DOCTYPE svg PUBLIC "-//W3C//DTD SVG 20010904//EN"
 "http://www.w3.org/TR/2001/REC-SVG-20010904/DTD/svg10.dtd">
<svg version="1.0" xmlns="http://www.w3.org/2000/svg"
 width="1000.000000pt" height="1000.000000pt" viewBox="0 0 1000.000000 1000.000000"
 preserveAspectRatio="xMidYMid meet">
<metadata>
Created by potrace 1.14, written by Peter Selinger 2001-2017
</metadata>
<g transform="translate(0.000000,1000.000000) scale(0.100000,-0.100000)"
fill="#000000" stroke="none">
<path d="M7010 9994 c-8 -1 -49 -8 -90 -15 -41 -7 -84 -13 -95 -15 -11 -1 -20
-3 -20 -4 0 -1 -7 -3 -15 -5 -146 -30 -539 -183 -562 -219 -4 -6 -8 -8 -8 -3
0 4 -18 -4 -40 -18 -22 -14 -42 -25 -46 -25 -12 0 -231 -150 -299 -204 -110
-89 -217 -196 -305 -305 -19 -23 -40 -48 -45 -54 -6 -7 -28 -37 -50 -67 -22
-30 -42 -57 -45 -60 -7 -7 -29 -42 -37 -60 -4 -8 -9 -17 -13 -20 -22 -17 -169
-305 -195 -380 -1 -3 -7 -18 -14 -35 -17 -39 -71 -213 -77 -245 -3 -14 -8 -34
-11 -45 -4 -11 -7 -24 -8 -30 -2 -21 -18 -121 -22 -140 -8 -36 -12 -339 -4
-375 l7 -35 129 1 c113 1 174 6 249 20 44 8 192 47 201 52 6 4 17 7 25 9 26 4
145 56 152 67 4 6 8 8 8 4 0 -27 276 146 426 266 71 57 256 235 324 313 51 58
159 201 220 293 85 126 210 371 206 401 -1 3 4 12 10 20 23 29 90 264 109 379
3 19 7 46 10 60 15 81 23 354 13 445 -3 27 -7 30 -38 31 -19 0 -42 0 -50 -2z"/>
<path d="M6738 7625 c-1 -1 -30 -6 -63 -9 -85 -9 -171 -24 -292 -51 -13 -3
-33 -7 -45 -10 -13 -2 -48 -11 -78 -20 -30 -9 -59 -17 -65 -19 -5 -1 -30 -9
-55 -16 -25 -7 -49 -14 -55 -16 -21 -5 -357 -124 -366 -129 -5 -4 -17 -8 -26
-10 -17 -4 -215 -72 -220 -76 -2 -1 -6 -2 -10 -3 -17 -4 -190 -58 -213 -67
-99 -36 -211 -42 -305 -17 -22 5 -48 12 -57 14 -10 2 -26 6 -36 8 -48 11 -108
30 -116 38 -6 4 -22 8 -36 8 -14 0 -30 4 -36 8 -5 5 -43 19 -84 32 -41 13 -79
26 -85 29 -5 4 -28 13 -50 20 -22 7 -49 16 -60 21 -19 7 -162 59 -230 82 -16
5 -39 14 -50 19 -11 5 -29 11 -40 12 -11 2 -27 7 -35 10 -8 4 -42 14 -75 23
-33 9 -94 25 -135 36 -41 11 -84 21 -95 23 -11 1 -49 8 -85 15 -122 22 -360
34 -360 17 0 -5 -6 -4 -13 2 -8 6 -16 9 -18 7 -2 -2 -35 -7 -74 -11 -38 -3
-86 -8 -105 -12 -19 -3 -48 -6 -65 -8 -16 -1 -37 -6 -46 -9 -9 -4 -20 -6 -25
-5 -5 1 -11 1 -14 -1 -3 -1 -16 -3 -30 -6 -88 -15 -294 -77 -390 -117 -38 -15
-69 -27 -73 -26 -1 0 -58 -29 -127 -63 -129 -66 -322 -183 -328 -199 -2 -5
-10 -9 -18 -9 -8 0 -14 -4 -14 -8 0 -4 -12 -15 -27 -24 -59 -35 -215 -172
-314 -274 -91 -95 -204 -234 -264 -324 -16 -25 -33 -46 -37 -48 -5 -2 -8 -8
-8 -14 0 -5 -13 -28 -28 -51 -16 -23 -40 -62 -53 -87 -13 -25 -27 -47 -30 -50
-5 -5 -84 -165 -123 -252 -9 -21 -28 -68 -42 -105 -13 -38 -28 -75 -31 -83 -3
-8 -7 -18 -8 -22 -2 -5 -4 -11 -5 -15 -2 -5 -4 -12 -5 -18 -1 -5 -5 -17 -8
-25 -10 -26 -39 -120 -41 -133 -1 -7 -5 -18 -9 -24 -5 -7 -6 -13 -3 -13 2 0 0
-15 -5 -32 -5 -18 -12 -46 -15 -63 -8 -43 -12 -60 -14 -60 -2 0 -9 -35 -15
-75 -3 -19 -7 -45 -9 -57 -3 -11 -8 -43 -12 -70 -3 -26 -8 -57 -10 -68 -2 -11
-7 -49 -10 -85 -3 -36 -8 -87 -11 -115 -7 -66 -7 -633 1 -710 3 -33 8 -85 11
-115 11 -113 25 -231 30 -250 2 -8 7 -35 10 -60 13 -95 83 -430 110 -532 3
-10 7 -26 9 -35 3 -10 9 -33 15 -51 9 -32 11 -37 16 -57 11 -44 29 -105 37
-127 6 -15 10 -31 10 -35 1 -11 97 -292 113 -328 11 -25 25 -64 30 -85 1 -3 6
-16 12 -30 6 -14 12 -29 13 -35 4 -15 58 -142 91 -213 16 -35 29 -66 29 -68 0
-10 164 -340 181 -366 11 -14 19 -33 19 -41 0 -9 3 -17 8 -19 10 -4 102 -165
102 -178 0 -5 5 -10 10 -10 6 0 10 -5 10 -10 0 -6 5 -16 10 -23 21 -24 90
-138 90 -147 0 -6 4 -10 8 -10 5 0 15 -12 23 -27 8 -16 16 -30 19 -33 3 -3 39
-52 80 -110 41 -58 78 -107 82 -108 4 -2 8 -8 8 -14 0 -10 25 -45 77 -105 18
-21 33 -44 33 -50 0 -7 4 -13 9 -13 4 0 20 -17 33 -37 14 -21 38 -51 52 -68
15 -16 37 -43 49 -58 27 -35 26 -34 112 -132 150 -171 363 -365 484 -440 9 -5
18 -12 21 -15 24 -27 207 -116 293 -145 134 -43 184 -50 347 -49 123 1 276 25
389 60 25 8 57 17 71 20 13 3 30 10 37 16 7 6 13 8 13 4 0 -5 104 30 170 57
14 6 29 9 34 8 5 -1 17 6 27 15 11 9 19 14 19 11 0 -3 31 7 69 22 111 47 329
113 442 136 90 19 206 36 274 41 107 8 258 10 270 5 5 -3 28 -6 50 -7 81 -4
188 -21 310 -50 11 -3 29 -7 41 -9 12 -3 40 -11 63 -19 22 -9 41 -13 41 -11 0
2 30 -8 68 -22 37 -13 74 -26 82 -28 8 -2 58 -21 111 -43 52 -22 120 -47 150
-57 30 -10 59 -20 64 -24 6 -3 15 -6 20 -8 6 -1 42 -11 80 -23 68 -20 85 -25
123 -34 9 -2 37 -9 62 -16 25 -6 63 -13 85 -15 22 -2 40 -4 40 -5 0 -1 9 -4
20 -7 29 -7 315 -10 315 -3 0 3 10 6 23 6 28 1 117 18 125 24 2 3 7 4 47 14
75 19 315 131 315 147 0 5 5 9 12 9 11 0 128 85 193 139 56 48 260 255 315
321 30 36 59 68 65 72 6 5 6 8 0 8 -5 0 -5 4 2 8 10 6 75 86 130 158 52 69
172 233 203 279 19 28 37 52 40 55 3 3 30 43 60 90 30 47 57 87 60 90 3 3 11
16 19 30 8 14 43 72 77 130 50 84 218 413 290 565 16 35 125 305 128 320 2 6
6 19 11 30 38 103 54 149 52 151 -1 1 -58 31 -127 66 -69 35 -145 77 -170 93
-25 16 -47 30 -50 30 -5 1 -83 56 -110 78 -8 7 -31 23 -50 37 -90 63 -270 234
-355 335 -27 33 -55 65 -61 70 -23 22 -134 182 -134 194 0 5 -3 11 -7 13 -39
17 -224 444 -247 569 -3 13 -5 24 -6 24 -1 0 -3 9 -5 20 -2 11 -6 31 -9 45
-12 51 -28 146 -31 185 -2 22 -4 40 -5 40 -6 0 -11 122 -12 260 0 143 5 263
17 335 11 74 18 111 31 170 9 36 17 74 19 85 2 11 4 20 5 20 1 0 3 7 5 15 20
101 144 384 216 495 73 114 84 130 90 135 3 3 18 23 35 45 50 67 66 86 169
190 100 101 168 163 219 200 15 11 42 32 59 47 18 15 35 28 39 28 4 0 13 6 20
13 7 7 53 39 101 70 83 55 88 59 73 76 -9 10 -16 21 -16 25 0 4 -6 13 -12 20
-7 7 -29 32 -48 56 -114 138 -193 218 -315 319 -115 94 -105 86 -170 130 -149
101 -429 240 -535 267 -8 2 -49 15 -90 30 -41 14 -86 28 -100 30 -14 2 -41 8
-60 13 -19 6 -48 13 -65 17 -16 4 -37 9 -45 11 -8 2 -26 5 -40 7 -14 2 -52 8
-85 14 -57 11 -78 14 -185 28 -47 7 -416 15 -422 9z"/>
</g>
</svg>
